{"title":"Glory-AC3-XviD-BRRip 1989 TBS","uid":6311203,"size":1675341206,"categoryP":"video","categoryS":"movies","magnet":"?xt=urn:btih:01caf74ec8733dcd375d5854f23a98f057993d7a&amp;dn=Glory-AC3-XviD-BRRip+1989+TBS&amp;tr=udp%3A%2F%2Ftracker.openbittorrent.com%3A80&amp;tr=udp%3A%2F%2Fopen.demonii.com%3A1337&amp;tr=udp%3A%2F%2Ftracker.coppersurfer.tk%3A6969&amp;tr=udp%3A%2F%2Fexodus.desync.com%3A6969","seeders":0,"leechers":1,"uploader":"FatFreddy30","files":-1,"time":1302542559,"description":"Robert Gould Shaw leads the US Civil War's first all-black volunteer company, fighting prejudices of both his own Union army and the Confederates...\n &lt;a href=&quot;\nhttp://www.imdb.com/title/tt0097441/&quot; rel=&quot;nofollow&quot; target=&quot;_NEW&quot;&gt;\nhttp://www.imdb.com/title/tt0097441/&lt;/a&gt;\n\nSubs: Dutch, English.\n\n\nAmerika 19de eeuw. Robert Gould Shaw, zoon van rijke abolitionisten uit Boston, is pas 23 en erg idealistisch wanneer hij dienst neemt. Tijdens de bloedige en chaotische slag van Antietam maakt dit gevoel plaats voor desillusie. Ontnuchterd keert hij naar huis terug, waar hij de leiding aangeboden krijgt van de 54ste infanterie van Massachusetts. Dit regiment bestaat enkel uit zwarten. Robert aanvaardt het bevel en rekruteert zijn oude klasgenoot Cabot Forbes om de manschappen op te leiden...\n &lt;a href=&quot;\nhttp://www.moviemeter.nl/film/1214&quot; rel=&quot;nofollow&quot; target=&quot;_NEW&quot;&gt;\nhttp://www.moviemeter.nl/film/1214&lt;/a&gt;\n\nOndertitels: Engels, Nederlands.\n\nGeneral\nComplete name                    : Glory-AC3-XviD-BRRip 1989.avi\nFormat                           : AVI\nFormat/Info                      : Audio Video Interleave\nFile size                        : 1.56 GiB\nDuration                         : 2h 2mn\nOverall bit rate                 : 1 826 Kbps\nWriting application              : VirtualDubMod 1.5.4.1 (build 2178/release)\nWriting library                  : VirtualDubMod build 2178/release\nSource                           : Glory.1989.BluRay.720p.AC3.x264-SiNNERS\n\nVideo\nID                               : 0\nFormat                           : MPEG-4 Visual\nFormat profile                   : Simple@L3\nFormat settings, BVOP            : No\nFormat settings, QPel            : No\nFormat settings, GMC             : No warppoints\nFormat settings, Matrix          : Default (H.263)\nCodec ID                         : XVID\nCodec ID/Hint                    : XviD\nDuration                         : 2h 2mn\nBit rate                         : 1 369 Kbps\nWidth                            : 720 pixels\nHeight                           : 400 pixels\nDisplay aspect ratio             : 16:9\nFrame rate                       : 23.976 fps\nResolution                       : 8 bits\nColorimetry                      : 4:2:0\nScan type                        : Progressive\nBits/(Pixel*Frame)               : 0.198\nStream size                      : 1.17 GiB (75%)\nWriting library                  : XviD 1.1.2 (UTC 2006-11-01)\n\nAudio\nID                               : 1\nFormat                           : AC-3\nFormat/Info                      : Audio Coding 3\nCodec ID                         : 2000\nDuration                         : 2h 2mn\nBit rate mode                    : Constant\nBit rate                         : 448 Kbps\nChannel(s)                       : 6 channels\nChannel positions                : Front: L C R, Surround: L R, LFE\nSampling rate                    : 48.0 KHz\nStream size                      : 392 MiB (25%)\nAlignment                        : Split accross interleaves\nInterleave, duration             : 42 ms (1.00 video frame)\nInterleave, preload duration     : 500 ms\n\nEnjoy..","torrent":{"xt":"urn:btih:01caf74ec8733dcd375d5854f23a98f057993d7a","amp;dn":"Glory-AC3-XviD-BRRip+1989+TBS","amp;tr":["udp%3A%2F%2Ftracker.openbittorrent.com%3A80","udp%3A%2F%2Fopen.demonii.com%3A1337","udp%3A%2F%2Ftracker.coppersurfer.tk%3A6969","udp%3A%2F%2Fexodus.desync.com%3A6969"],"infoHash":"01caf74ec8733dcd375d5854f23a98f057993d7a","infoHashBuffer":{"type":"Buffer","data":[1,202,247,78,200,115,61,205,55,93,88,84,242,58,152,240,87,153,61,122]},"announce":[],"urlList":[]}}